<svg id="visual" viewBox="0 0 450 900" width="450" height="900" xmlns="http://www.w3.org/2000/svg" xmlns:xlink="http://www.w3.org/1999/xlink" version="1.1"><rect x="0" y="0" width="450" height="900" fill="#11151C"></rect><path d="M0 605L15 604.3C30 603.7 60 602.3 90 590C120 577.7 150 554.3 180 556.2C210 558 240 585 270 593.2C300 601.3 330 590.7 360 575.3C390 560 420 540 435 530L450 520L450 901L435 901C420 901 390 901 360 901C330 901 300 901 270 901C240 901 210 901 180 901C150 901 120 901 90 901C60 901 30 901 15 901L0 901Z" fill="#ff794d"></path><path d="M0 654L15 643.5C30 633 60 612 90 614.3C120 616.7 150 642.3 180 650.8C210 659.3 240 650.7 270 642.5C300 634.3 330 626.7 360 620.7C390 614.7 420 610.3 435 608.2L450 606L450 901L435 901C420 901 390 901 360 901C330 901 300 901 270 901C240 901 210 901 180 901C150 901 120 901 90 901C60 901 30 901 15 901L0 901Z" fill="#e06b51"></path><path d="M0 737L15 727.5C30 718 60 699 90 684.3C120 669.7 150 659.3 180 654.5C210 649.7 240 650.3 270 660.8C300 671.3 330 691.7 360 699.8C390 708 420 704 435 702L450 700L450 901L435 901C420 901 390 901 360 901C330 901 300 901 270 901C240 901 210 901 180 901C150 901 120 901 90 901C60 901 30 901 15 901L0 901Z" fill="#bf5f52"></path><path d="M0 736L15 743.8C30 751.7 60 767.3 90 766.7C120 766 150 749 180 740.2C210 731.3 240 730.7 270 732C300 733.3 330 736.7 360 735.8C390 735 420 730 435 727.5L450 725L450 901L435 901C420 901 390 901 360 901C330 901 300 901 270 901C240 901 210 901 180 901C150 901 120 901 90 901C60 901 30 901 15 901L0 901Z" fill="#9e554f"></path><path d="M0 818L15 824.8C30 831.7 60 845.3 90 852.5C120 859.7 150 860.3 180 854.5C210 848.7 240 836.3 270 828.8C300 821.3 330 818.7 360 823.5C390 828.3 420 840.7 435 846.8L450 853L450 901L435 901C420 901 390 901 360 901C330 901 300 901 270 901C240 901 210 901 180 901C150 901 120 901 90 901C60 901 30 901 15 901L0 901Z" fill="#7c4b4a"></path></svg>